<?xml version="1.0" encoding="UTF-8"?>
<svg xmlns="http://www.w3.org/2000/svg" xmlns:xlink="http://www.w3.org/1999/xlink" width="32px" height="32px" viewBox="0 0 32 32" version="1.1">
<g id="surface1">
<path style=" stroke:none;fill-rule:evenodd;fill:rgb(0%,57.647061%,57.647061%);fill-opacity:1;" d="M 7.058594 0.304688 L 25.382812 0.304688 C 25.820312 0.304688 26.226562 0.585938 26.441406 1.039062 L 31.78125 12.140625 C 32.058594 12.714844 31.976562 13.441406 31.582031 13.910156 L 16.886719 31.277344 C 16.410156 31.839844 15.644531 31.839844 15.167969 31.277344 L 0.492188 13.933594 C 0.0898438 13.453125 0.0117188 12.707031 0.308594 12.128906 L 6.015625 1.003906 C 6.238281 0.570312 6.632812 0.304688 7.058594 0.304688 Z M 23.015625 5.261719 L 23.015625 8.375 L 17.796875 8.375 L 17.796875 10.535156 C 21.464844 10.765625 24.214844 11.714844 24.234375 12.851562 L 24.234375 15.21875 C 24.214844 16.355469 21.464844 17.300781 17.796875 17.535156 L 17.796875 22.832031 L 14.332031 22.832031 L 14.332031 17.535156 C 10.664062 17.300781 7.914062 16.355469 7.894531 15.21875 L 7.894531 12.851562 C 7.914062 11.714844 10.664062 10.765625 14.332031 10.535156 L 14.332031 8.375 L 9.109375 8.375 L 9.109375 5.261719 Z M 16.0625 15.90625 C 19.976562 15.90625 23.246094 15.105469 24.046875 14.035156 C 23.367188 13.128906 20.914062 12.414062 17.796875 12.214844 L 17.796875 14.476562 C 17.238281 14.511719 16.660156 14.53125 16.0625 14.53125 C 15.46875 14.53125 14.890625 14.511719 14.332031 14.476562 L 14.332031 12.214844 C 11.214844 12.414062 8.757812 13.128906 8.082031 14.035156 C 8.882812 15.105469 12.152344 15.90625 16.0625 15.90625 Z M 16.0625 15.90625 "/>
</g>
</svg>
